<?xml version="1.0"?>
<!-- Generated by SVGo -->
<svg width="74" height="39"
     xmlns="http://www.w3.org/2000/svg"
     xmlns:xlink="http://www.w3.org/1999/xlink">
<path d="M 0.5019999999999953,6.217999999999989 L 0.5019999999999953,6.217999999999989" stroke="black" />
<path d="M 0.3999999999999915,6.217999999999989 L 0.3999999999999915,6.217999999999989" stroke="black" />
<path d="M 0.3999999999999915,6.217999999999989 L 0.3999999999999915,6.217999999999989" stroke="black" />
<path d="M 0.3999999999999915,6.217999999999989 L 0.5039999999999907,7.070999999999998" stroke="black" />
<path d="M 0.5039999999999907,7.070999999999998 L 0.8049999999999926,8.030000000000001" stroke="black" />
<path d="M 0.8049999999999926,8.030000000000001 L 1.2029999999999887,8.775999999999996" stroke="black" />
<path d="M 1.2029999999999887,8.775999999999996 L 1.5929999999999893,9.328000000000003" stroke="black" />
<path d="M 1.5929999999999893,9.328000000000003 L 2.128,9.912999999999997" stroke="black" />
<path d="M 2.128,9.912999999999997 L 33.26299999999999,37.03" stroke="black" />
<path d="M 33.26299999999999,37.03 L 33.83999999999999,37.471000000000004" stroke="black" />
<path d="M 33.83999999999999,37.471000000000004 L 34.41699999999999,37.81" stroke="black" />
<path d="M 34.41699999999999,37.81 L 35.057,38.079999999999984" stroke="black" />
<path d="M 35.057,38.079999999999984 L 35.715999999999994,38.268" stroke="black" />
<path d="M 35.715999999999994,38.268 L 36.532,38.39699999999999" stroke="black" />
<path d="M 36.532,38.39699999999999 L 37.374999999999986,38.375" stroke="black" />
<path d="M 37.374999999999986,38.375 L 38.217,38.245000000000005" stroke="black" />
<path d="M 38.217,38.245000000000005 L 39.013999999999996,37.96799999999999" stroke="black" />
<path d="M 39.013999999999996,37.96799999999999 L 39.623000000000005,37.667" stroke="black" />
<path d="M 39.623000000000005,37.667 L 40.28599999999999,37.230999999999995" stroke="black" />
<path d="M 40.28599999999999,37.230999999999995 L 71.48700000000001,10.054999999999993" stroke="black" />
<path d="M 71.48700000000001,10.054999999999993 L 72.06599999999999,9.49199999999999" stroke="black" />
<path d="M 72.06599999999999,9.49199999999999 L 72.55499999999999,8.807999999999993" stroke="black" />
<path d="M 72.55499999999999,8.807999999999993 L 72.961,8.060000000000002" stroke="black" />
<path d="M 72.961,8.060000000000002 L 73.26799999999999,7.095999999999989" stroke="black" />
<path d="M 73.26799999999999,7.095999999999989 L 73.37599999999999,6.253999999999991" stroke="black" />
<path d="M 73.37599999999999,6.253999999999991 L 73.377,5.722999999999999" stroke="black" />
<path d="M 73.377,5.722999999999999 L 73.377,5.578000000000003" stroke="black" />
<path d="M 73.377,5.578000000000003 L 73.27499999999999,4.725999999999999" stroke="black" />
<path d="M 73.27499999999999,4.725999999999999 L 72.973,3.765999999999991" stroke="black" />
<path d="M 72.973,3.765999999999991 L 72.573,3.0180000000000007" stroke="black" />
<path d="M 72.573,3.0180000000000007 L 72.182,2.4639999999999986" stroke="black" />
<path d="M 72.182,2.4639999999999986 L 71.72699999999999,1.961999999999989" stroke="black" />
<path d="M 71.72699999999999,1.961999999999989 L 71.086,1.4080000000000013" stroke="black" />
<path d="M 71.086,1.4080000000000013 L 70.36200000000001,0.9869999999999948" stroke="black" />
<path d="M 70.36200000000001,0.9869999999999948 L 69.72099999999999,0.7169999999999987" stroke="black" />
<path d="M 69.72099999999999,0.7169999999999987 L 69.063,0.527000000000001" stroke="black" />
<path d="M 69.063,0.527000000000001 L 68.271,0.4029999999999916" stroke="black" />
<path d="M 68.271,0.4029999999999916 L 5.545000000000002,0.3999999999999915" stroke="black" />
<path d="M 5.545000000000002,0.3999999999999915 L 4.560999999999993,0.5510000000000019" stroke="black" />
<path d="M 4.560999999999993,0.5510000000000019 L 3.763999999999996,0.828000000000003" stroke="black" />
<path d="M 3.763999999999996,0.828000000000003 L 3.155000000000001,1.1289999999999907" stroke="black" />
<path d="M 3.155000000000001,1.1289999999999907 L 2.5889999999999986,1.5009999999999906" stroke="black" />
<path d="M 2.5889999999999986,1.5009999999999906 L 2.075000000000003,1.938999999999993" stroke="black" />
<path d="M 2.075000000000003,1.938999999999993 L 1.6159999999999997,2.4369999999999976" stroke="black" />
<path d="M 1.6159999999999997,2.4369999999999976 L 1.222999999999999,2.9879999999999995" stroke="black" />
<path d="M 1.222999999999999,2.9879999999999995 L 0.8169999999999931,3.73599999999999" stroke="black" />
<path d="M 0.8169999999999931,3.73599999999999 L 0.5099999999999909,4.700000000000003" stroke="black" />
<path d="M 0.5099999999999909,4.700000000000003 L 0.4749999999999943,4.972999999999999" stroke="black" />
<path d="M 0,6.24199999999999 L 0.11099999999999,7.155000000000001" stroke="black" />
<path d="M 0.11099999999999,7.155000000000001 L 0.4350000000000023,8.185999999999993" stroke="black" />
<path d="M 0.4350000000000023,8.185999999999993 L 0.8619999999999948,8.98599999999999" stroke="black" />
<path d="M 0.8619999999999948,8.98599999999999 L 1.2809999999999917,9.579999999999998" stroke="black" />
<path d="M 1.2809999999999917,9.579999999999998 L 1.847999999999999,10.200000000000003" stroke="black" />
<path d="M 1.847999999999999,10.200000000000003 L 33.010000000000005,37.34" stroke="black" />
<path d="M 33.010000000000005,37.34 L 33.616,37.803" stroke="black" />
<path d="M 33.616,37.803 L 34.23700000000001,38.168000000000006" stroke="black" />
<path d="M 34.23700000000001,38.168000000000006 L 34.92399999999999,38.458" stroke="black" />
<path d="M 34.92399999999999,38.458 L 35.629000000000005,38.66" stroke="black" />
<path d="M 35.629000000000005,38.66 L 36.505999999999986,38.798" stroke="black" />
<path d="M 36.505999999999986,38.798 L 37.41099999999999,38.774" stroke="black" />
<path d="M 37.41099999999999,38.774 L 38.31400000000001,38.63499999999999" stroke="black" />
<path d="M 38.31400000000001,38.63499999999999 L 39.169,38.337999999999994" stroke="black" />
<path d="M 39.169,38.337999999999994 L 39.82199999999999,38.014999999999986" stroke="black" />
<path d="M 39.82199999999999,38.014999999999986 L 40.528000000000006,37.55099999999999" stroke="black" />
<path d="M 40.528000000000006,37.55099999999999 L 71.758,10.34899999999999" stroke="black" />
<path d="M 71.758,10.34899999999999 L 72.36999999999999,9.75399999999999" stroke="black" />
<path d="M 72.36999999999999,9.75399999999999 L 72.895,9.019999999999996" stroke="black" />
<path d="M 72.895,9.019999999999996 L 73.331,8.21799999999999" stroke="black" />
<path d="M 73.331,8.21799999999999 L 73.65999999999998,7.182999999999993" stroke="black" />
<path d="M 73.65999999999998,7.182999999999993 L 73.776,6.280000000000001" stroke="black" />
<path d="M 73.776,6.280000000000001 L 73.777,5.7239999999999895" stroke="black" />
<path d="M 73.777,5.7239999999999895 L 73.777,5.554000000000002" stroke="black" />
<path d="M 73.777,5.554000000000002 L 73.66699999999999,4.640999999999991" stroke="black" />
<path d="M 73.66699999999999,4.640999999999991 L 73.343,3.6099999999999994" stroke="black" />
<path d="M 73.343,3.6099999999999994 L 72.914,2.8079999999999927" stroke="black" />
<path d="M 72.914,2.8079999999999927 L 72.49499999999999,2.2139999999999986" stroke="black" />
<path d="M 72.49499999999999,2.2139999999999986 L 72.00699999999999,1.676000000000002" stroke="black" />
<path d="M 72.00699999999999,1.676000000000002 L 71.32000000000001,1.081000000000003" stroke="black" />
<path d="M 71.32000000000001,1.081000000000003 L 70.54099999999998,0.6280000000000001" stroke="black" />
<path d="M 70.54099999999998,0.6280000000000001 L 69.854,0.33899999999999864" stroke="black" />
<path d="M 69.854,0.33899999999999864 L 69.14899999999999,0.13599999999999568" stroke="black" />
<path d="M 69.14899999999999,0.13599999999999568 L 68.302,0.0030000000000001137" stroke="black" />
<path d="M 68.302,0.0030000000000001137 L 5.515000000000001,0" stroke="black" />
<path d="M 5.515000000000001,0 L 4.463999999999999,0.16100000000000136" stroke="black" />
<path d="M 4.463999999999999,0.16100000000000136 L 3.6089999999999947,0.4579999999999984" stroke="black" />
<path d="M 3.6089999999999947,0.4579999999999984 L 2.955999999999989,0.7809999999999917" stroke="black" />
<path d="M 2.955999999999989,0.7809999999999917 L 2.3489999999999895,1.1799999999999926" stroke="black" />
<path d="M 2.3489999999999895,1.1799999999999926 L 1.796999999999997,1.6499999999999915" stroke="black" />
<path d="M 1.796999999999997,1.6499999999999915 L 1.3049999999999926,2.1850000000000023" stroke="black" />
<path d="M 1.3049999999999926,2.1850000000000023 L 0.8829999999999956,2.7759999999999962" stroke="black" />
<path d="M 0.8829999999999956,2.7759999999999962 L 0.44700000000000273,3.578000000000003" stroke="black" />
<path d="M 0.44700000000000273,3.578000000000003 L 0.117999999999995,4.6129999999999995" stroke="black" />
<path d="M 0.117999999999995,4.6129999999999995 L 0.06900000000000261,4.997" stroke="black" />
<path d="M 5.147999999999996,6.3999999999999915 L 5.1499999999999915,5.927999999999997" stroke="black" />
<path d="M 5.1499999999999915,5.927999999999997 L 5.253999999999991,5.521000000000001" stroke="black" />
<path d="M 5.253999999999991,5.521000000000001 L 5.409999999999997,5.209999999999994" stroke="black" />
<path d="M 5.409999999999997,5.209999999999994 L 5.706999999999994,4.853999999999999" stroke="black" />
<path d="M 5.706999999999994,4.853999999999999 L 6.046999999999997,4.61099999999999" stroke="black" />
<path d="M 6.046999999999997,4.61099999999999 L 6.376999999999995,4.471999999999994" stroke="black" />
<path d="M 6.376999999999995,4.471999999999994 L 6.718999999999994,4.402000000000001" stroke="black" />
<path d="M 6.718999999999994,4.402000000000001 L 66.92399999999999,4.396999999999991" stroke="black" />
<path d="M 66.92399999999999,4.396999999999991 L 67.407,4.474999999999994" stroke="black" />
<path d="M 67.407,4.474999999999994 L 67.728,4.608999999999995" stroke="black" />
<path d="M 67.728,4.608999999999995 L 68.11899999999999,4.897999999999996" stroke="black" />
<path d="M 68.11899999999999,4.897999999999996 L 68.409,5.2819999999999965" stroke="black" />
<path d="M 68.409,5.2819999999999965 L 68.629,5.888999999999996" stroke="black" />
<path d="M 68.629,5.888999999999996 L 68.63000000000001,6.352999999999994" stroke="black" />
<path d="M 68.63000000000001,6.352999999999994 L 68.521,6.780999999999992" stroke="black" />
<path d="M 68.521,6.780999999999992 L 68.336,7.1299999999999955" stroke="black" />
<path d="M 68.336,7.1299999999999955 L 68.087,7.427999999999997" stroke="black" />
<path d="M 68.087,7.427999999999997 L 67.699,7.698999999999998" stroke="black" />
<path d="M 67.699,7.698999999999998 L 67.31599999999999,7.845999999999989" stroke="black" />
<path d="M 67.31599999999999,7.845999999999989 L 66.99399999999999,7.893999999999991" stroke="black" />
<path d="M 66.99399999999999,7.893999999999991 L 31.678999999999988,7.896999999999991" stroke="black" />
<path d="M 31.678999999999988,7.896999999999991 L 6.853999999999999,7.899000000000001" stroke="black" />
<path d="M 6.853999999999999,7.899000000000001 L 6.338999999999999,7.8089999999999975" stroke="black" />
<path d="M 6.338999999999999,7.8089999999999975 L 6.001999999999995,7.659999999999997" stroke="black" />
<path d="M 6.001999999999995,7.659999999999997 L 5.75,7.471999999999994" stroke="black" />
<path d="M 5.545999999999992,6.311999999999998 L 5.546999999999997,5.977999999999994" stroke="black" />
<path d="M 5.546999999999997,5.977999999999994 L 5.628,5.662999999999997" stroke="black" />
<path d="M 5.628,5.662999999999997 L 5.744,5.429999999999993" stroke="black" />
<path d="M 5.744,5.429999999999993 L 5.938999999999993,5.1839999999999975" stroke="black" />
<path d="M 5.938999999999993,5.1839999999999975 L 6.2239999999999895,4.969999999999999" stroke="black" />
<path d="M 6.2239999999999895,4.969999999999999 L 6.506,4.850999999999999" stroke="black" />
<path d="M 6.506,4.850999999999999 L 6.748999999999995,4.804000000000002" stroke="black" />
<path d="M 6.748999999999995,4.804000000000002 L 66.955,4.798999999999992" stroke="black" />
<path d="M 66.955,4.798999999999992 L 67.284,4.8559999999999945" stroke="black" />
<path d="M 67.284,4.8559999999999945 L 67.55299999999998,4.968999999999994" stroke="black" />
<path d="M 67.55299999999998,4.968999999999994 L 67.82199999999999,5.167000000000002" stroke="black" />
<path d="M 67.82199999999999,5.167000000000002 L 68.04699999999998,5.4539999999999935" stroke="black" />
<path d="M 68.04699999999998,5.4539999999999935 L 68.23199999999999,5.983999999999995" stroke="black" />
<path d="M 68.23199999999999,5.983999999999995 L 68.23199999999999,6.313000000000002" stroke="black" />
<path d="M 68.23199999999999,6.313000000000002 L 68.14199999999998,6.652000000000001" stroke="black" />
<path d="M 68.14199999999998,6.652000000000001 L 68.045,6.846999999999994" stroke="black" />
<path d="M 68.045,6.846999999999994 L 67.824,7.125999999999991" stroke="black" />
<path d="M 67.824,7.125999999999991 L 67.54299999999999,7.331000000000003" stroke="black" />
<path d="M 67.54299999999999,7.331000000000003 L 67.28499999999998,7.439999999999998" stroke="black" />
<path d="M 67.28499999999998,7.439999999999998 L 67.02999999999999,7.491" stroke="black" />
<path d="M 67.02999999999999,7.491 L 31.678999999999988,7.497" stroke="black" />
<path d="M 31.678999999999988,7.497 L 6.822999999999993,7.497" stroke="black" />
<path d="M 6.822999999999993,7.497 L 6.494,7.439999999999998" stroke="black" />
<path d="M 6.494,7.439999999999998 L 6.217999999999989,7.320999999999998" stroke="black" />
<path d="M 29.403000000000006,23.915999999999997 L 29.441999999999993,23.492999999999995" stroke="black" />
<path d="M 29.441999999999993,23.492999999999995 L 29.60600000000001,22.60499999999999" stroke="black" />
<path d="M 29.60600000000001,22.60499999999999 L 29.908,21.653999999999996" stroke="black" />
<path d="M 29.908,21.653999999999996 L 30.287999999999997,20.834000000000003" stroke="black" />
<path d="M 30.287999999999997,20.834000000000003 L 30.747,20.093999999999994" stroke="black" />
<path d="M 30.747,20.093999999999994 L 31.36999999999999,19.319000000000003" stroke="black" />
<path d="M 31.36999999999999,19.319000000000003 L 32.03499999999998,18.679000000000002" stroke="black" />
<path d="M 32.03499999999998,18.679000000000002 L 32.760000000000005,18.135999999999996" stroke="black" />
<path d="M 32.760000000000005,18.135999999999996 L 33.17100000000001,17.884" stroke="black" />
<path d="M 33.17100000000001,17.884 L 33.999999999999986,17.47699999999999" stroke="black" />
<path d="M 33.999999999999986,17.47699999999999 L 34.8,17.194000000000003" stroke="black" />
<path d="M 34.8,17.194000000000003 L 35.307,17.064999999999998" stroke="black" />
<path d="M 35.307,17.064999999999998 L 36.215999999999994,16.926999999999992" stroke="black" />
<path d="M 36.215999999999994,16.926999999999992 L 36.69500000000001,16.89999999999999" stroke="black" />
<path d="M 36.69500000000001,16.89999999999999 L 37.544,16.926000000000002" stroke="black" />
<path d="M 37.544,16.926000000000002 L 38.459999999999994,17.063999999999993" stroke="black" />
<path d="M 38.459999999999994,17.063999999999993 L 38.977999999999994,17.194000000000003" stroke="black" />
<path d="M 38.977999999999994,17.194000000000003 L 39.778000000000006,17.47699999999999" stroke="black" />
<path d="M 39.778000000000006,17.47699999999999 L 40.605000000000004,17.882999999999996" stroke="black" />
<path d="M 40.605000000000004,17.882999999999996 L 41.01799999999999,18.13499999999999" stroke="black" />
<path d="M 41.01799999999999,18.13499999999999 L 41.74300000000001,18.679000000000002" stroke="black" />
<path d="M 41.74300000000001,18.679000000000002 L 42.40599999999999,19.316999999999993" stroke="black" />
<path d="M 42.40599999999999,19.316999999999993 L 43.03099999999999,20.093999999999994" stroke="black" />
<path d="M 43.03099999999999,20.093999999999994 L 43.489999999999995,20.834000000000003" stroke="black" />
<path d="M 43.489999999999995,20.834000000000003 L 43.868999999999986,21.652" stroke="black" />
<path d="M 43.868999999999986,21.652 L 44.17100000000001,22.601" stroke="black" />
<path d="M 44.17100000000001,22.601 L 44.336,23.490999999999985" stroke="black" />
<path d="M 44.336,23.490999999999985 L 44.374999999999986,23.913999999999987" stroke="black" />
<path d="M 44.374999999999986,23.913999999999987 L 44.374999999999986,24.879999999999995" stroke="black" />
<path d="M 44.374999999999986,24.879999999999995 L 44.336,25.302999999999997" stroke="black" />
<path d="M 44.336,25.302999999999997 L 44.17199999999998,26.191000000000003" stroke="black" />
<path d="M 44.17199999999998,26.191000000000003 L 43.86999999999999,27.141999999999996" stroke="black" />
<path d="M 43.86999999999999,27.141999999999996 L 43.516000000000005,27.912000000000006" stroke="black" />
<path d="M 43.516000000000005,27.912000000000006 L 43.032,28.701999999999998" stroke="black" />
<path d="M 43.032,28.701999999999998 L 42.45700000000001,29.424000000000007" stroke="black" />
<path d="M 42.45700000000001,29.424000000000007 L 41.775999999999996,30.090000000000003" stroke="black" />
<path d="M 41.775999999999996,30.090000000000003 L 41.063,30.629999999999995" stroke="black" />
<path d="M 41.063,30.629999999999995 L 40.650999999999996,30.88900000000001" stroke="black" />
<path d="M 40.650999999999996,30.88900000000001 L 39.84400000000001,31.290999999999997" stroke="black" />
<path d="M 39.84400000000001,31.290999999999997 L 38.92399999999999,31.619" stroke="black" />
<path d="M 38.92399999999999,31.619 L 38.513999999999996,31.72200000000001" stroke="black" />
<path d="M 38.513999999999996,31.72200000000001 L 37.612999999999985,31.864000000000004" stroke="black" />
<path d="M 37.612999999999985,31.864000000000004 L 37.099000000000004,31.89699999999999" stroke="black" />
<path d="M 37.099000000000004,31.89699999999999 L 36.18499999999999,31.86699999999999" stroke="black" />
<path d="M 36.18499999999999,31.86699999999999 L 35.318,31.733000000000004" stroke="black" />
<path d="M 35.318,31.733000000000004 L 34.854,31.619" stroke="black" />
<path d="M 34.854,31.619 L 33.999999999999986,31.31899999999999" stroke="black" />
<path d="M 33.999999999999986,31.31899999999999 L 33.17100000000001,30.912000000000006" stroke="black" />
<path d="M 33.17100000000001,30.912000000000006 L 32.71499999999999,30.629999999999995" stroke="black" />
<path d="M 32.71499999999999,30.629999999999995 L 32.001999999999995,30.090000000000003" stroke="black" />
<path d="M 32.001999999999995,30.090000000000003 L 31.320000000000007,29.421999999999997" stroke="black" />
<path d="M 31.320000000000007,29.421999999999997 L 30.745999999999995,28.701999999999998" stroke="black" />
<path d="M 30.745999999999995,28.701999999999998 L 30.296999999999983,27.97800000000001" stroke="black" />
<path d="M 30.296999999999983,27.97800000000001 L 29.908,27.141999999999996" stroke="black" />
<path d="M 29.908,27.141999999999996 L 29.60600000000001,26.191000000000003" stroke="black" />
<path d="M 29.60600000000001,26.191000000000003 L 29.441999999999993,25.302999999999997" stroke="black" />
<path d="M 29.441999999999993,25.302999999999997 L 29.428999999999988,25.164999999999992" stroke="black" />
<path d="M 29.83999999999999,23.53 L 30.00500000000001,22.655" stroke="black" />
<path d="M 30.00500000000001,22.655 L 30.26299999999999,21.843999999999994" stroke="black" />
<path d="M 30.26299999999999,21.843999999999994 L 30.634,21.033999999999992" stroke="black" />
<path d="M 30.634,21.033999999999992 L 31.100999999999985,20.284999999999997" stroke="black" />
<path d="M 31.100999999999985,20.284999999999997 L 31.647999999999982,19.605999999999995" stroke="black" />
<path d="M 31.647999999999982,19.605999999999995 L 32.25699999999999,19.015" stroke="black" />
<path d="M 32.25699999999999,19.015 L 32.956,18.48599999999999" stroke="black" />
<path d="M 32.956,18.48599999999999 L 33.349000000000004,18.24199999999999" stroke="black" />
<path d="M 33.349000000000004,18.24199999999999 L 34.11200000000001,17.863" stroke="black" />
<path d="M 34.11200000000001,17.863 L 34.93399999999998,17.570999999999998" stroke="black" />
<path d="M 34.93399999999998,17.570999999999998 L 35.38000000000001,17.459000000000003" stroke="black" />
<path d="M 35.38000000000001,17.459000000000003 L 36.239999999999995,17.325999999999993" stroke="black" />
<path d="M 36.239999999999995,17.325999999999993 L 36.663,17.299999999999997" stroke="black" />
<path d="M 36.663,17.299999999999997 L 37.556,17.328000000000003" stroke="black" />
<path d="M 37.556,17.328000000000003 L 38.39799999999998,17.459000000000003" stroke="black" />
<path d="M 38.39799999999998,17.459000000000003 L 38.84400000000001,17.570999999999998" stroke="black" />
<path d="M 38.84400000000001,17.570999999999998 L 39.66599999999998,17.863" stroke="black" />
<path d="M 39.66599999999998,17.863 L 40.42700000000001,18.241" stroke="black" />
<path d="M 40.42700000000001,18.241 L 40.807,18.474999999999994" stroke="black" />
<path d="M 40.807,18.474999999999994 L 41.521,19.015" stroke="black" />
<path d="M 41.521,19.015 L 42.128,19.604" stroke="black" />
<path d="M 42.128,19.604 L 42.67700000000001,20.284999999999997" stroke="black" />
<path d="M 42.67700000000001,20.284999999999997 L 43.14399999999999,21.033999999999992" stroke="black" />
<path d="M 43.14399999999999,21.033999999999992 L 43.513999999999996,21.842" stroke="black" />
<path d="M 43.513999999999996,21.842 L 43.778000000000006,22.674999999999983" stroke="black" />
<path d="M 43.778000000000006,22.674999999999983 L 43.938,23.52799999999999" stroke="black" />
<path d="M 43.938,23.52799999999999 L 43.97699999999999,23.950999999999993" stroke="black" />
<path d="M 43.97699999999999,23.950999999999993 L 43.97699999999999,24.84299999999999" stroke="black" />
<path d="M 43.97699999999999,24.84299999999999 L 43.938,25.26599999999999" stroke="black" />
<path d="M 43.938,25.26599999999999 L 43.77299999999998,26.14099999999999" stroke="black" />
<path d="M 43.77299999999998,26.14099999999999 L 43.515,26.951999999999998" stroke="black" />
<path d="M 43.515,26.951999999999998 L 43.152,27.745000000000005" stroke="black" />
<path d="M 43.152,27.745000000000005 L 42.69199999999999,28.490999999999985" stroke="black" />
<path d="M 42.69199999999999,28.490999999999985 L 42.13000000000001,29.189999999999998" stroke="black" />
<path d="M 42.13000000000001,29.189999999999998 L 41.51299999999999,29.787999999999982" stroke="black" />
<path d="M 41.51299999999999,29.787999999999982 L 40.82199999999999,30.310000000000002" stroke="black" />
<path d="M 40.82199999999999,30.310000000000002 L 40.444,30.545999999999992" stroke="black" />
<path d="M 40.444,30.545999999999992 L 39.66599999999998,30.932999999999993" stroke="black" />
<path d="M 39.66599999999998,30.932999999999993 L 38.82600000000001,31.230999999999995" stroke="black" />
<path d="M 38.82600000000001,31.230999999999995 L 38.41599999999998,31.334000000000003" stroke="black" />
<path d="M 38.41599999999998,31.334000000000003 L 37.538,31.47" stroke="black" />
<path d="M 37.538,31.47 L 37.100999999999985,31.496999999999986" stroke="black" />
<path d="M 37.100999999999985,31.496999999999986 L 36.221999999999994,31.46799999999999" stroke="black" />
<path d="M 36.221999999999994,31.46799999999999 L 35.36200000000001,31.334000000000003" stroke="black" />
<path d="M 35.36200000000001,31.334000000000003 L 34.951999999999984,31.230999999999995" stroke="black" />
<path d="M 34.951999999999984,31.230999999999995 L 34.11200000000001,30.932999999999993" stroke="black" />
<path d="M 34.11200000000001,30.932999999999993 L 33.33200000000001,30.543999999999983" stroke="black" />
<path d="M 33.33200000000001,30.543999999999983 L 32.956,30.310000000000002" stroke="black" />
<path d="M 32.956,30.310000000000002 L 32.25699999999999,29.781000000000006" stroke="black" />
<path d="M 32.25699999999999,29.781000000000006 L 31.647999999999982,29.189999999999998" stroke="black" />
<path d="M 31.647999999999982,29.189999999999998 L 31.086,28.490999999999985" stroke="black" />
<path d="M 31.086,28.490999999999985 L 30.636999999999986,27.766999999999996" stroke="black" />
<path d="M 30.636999999999986,27.766999999999996 L 30.272000000000006,26.974999999999994" stroke="black" />
<path d="M 30.272000000000006,26.974999999999994 L 29.99900000000001,26.11699999999999" stroke="black" />
<path d="M 29.99900000000001,26.11699999999999 L 29.83999999999999,25.26599999999999" stroke="black" />
<path d="M 29.83999999999999,25.26599999999999 L 29.801000000000002,24.845" stroke="black" />
<path d="M 29.801000000000002,24.845 L 29.801000000000002,24.778999999999996" stroke="black" />
<path d="M 29.043999999999997,23.88300000000001 L 29.092,23.387" stroke="black" />
<path d="M 29.092,23.387 L 29.265,22.468999999999994" stroke="black" />
<path d="M 29.265,22.468999999999994 L 29.581000000000003,21.503" stroke="black" />
<path d="M 29.581000000000003,21.503 L 29.975999999999985,20.653999999999996" stroke="black" />
<path d="M 29.975999999999985,20.653999999999996 L 30.509,19.804999999999993" stroke="black" />
<path d="M 30.509,19.804999999999993 L 31.100999999999985,19.076999999999998" stroke="black" />
<path d="M 31.100999999999985,19.076999999999998 L 31.801000000000002,18.40599999999999" stroke="black" />
<path d="M 31.801000000000002,18.40599999999999 L 32.769999999999996,17.683999999999997" stroke="black" />
<path d="M 32.769999999999996,17.683999999999997 L 33.880999999999986,17.137" stroke="black" />
<path d="M 33.880999999999986,17.137 L 34.69799999999999,16.845" stroke="black" />
<path d="M 34.69799999999999,16.845 L 35.239999999999995,16.709999999999994" stroke="black" />
<path d="M 35.239999999999995,16.709999999999994 L 36.195999999999984,16.566999999999993" stroke="black" />
<path d="M 36.195999999999984,16.566999999999993 L 36.706,16.539999999999992" stroke="black" />
<path d="M 36.706,16.539999999999992 L 37.62599999999999,16.569000000000003" stroke="black" />
<path d="M 37.62599999999999,16.569000000000003 L 38.515,16.708" stroke="black" />
<path d="M 38.515,16.708 L 39.03699999999999,16.834000000000003" stroke="black" />
<path d="M 39.03699999999999,16.834000000000003 L 40.004000000000005,17.182000000000002" stroke="black" />
<path d="M 40.004000000000005,17.182000000000002 L 40.778000000000006,17.566999999999993" stroke="black" />
<path d="M 40.778000000000006,17.566999999999993 L 41.28099999999999,17.87899999999999" stroke="black" />
<path d="M 41.28099999999999,17.87899999999999 L 42.034000000000006,18.453000000000003" stroke="black" />
<path d="M 42.034000000000006,18.453000000000003 L 42.724000000000004,19.129999999999995" stroke="black" />
<path d="M 42.724000000000004,19.129999999999995 L 43.32299999999999,19.884" stroke="black" />
<path d="M 43.32299999999999,19.884 L 43.801,20.64999999999999" stroke="black" />
<path d="M 43.801,20.64999999999999 L 44.21499999999999,21.542999999999992" stroke="black" />
<path d="M 44.21499999999999,21.542999999999992 L 44.527,22.536" stroke="black" />
<path d="M 44.527,22.536 L 44.688,23.39699999999999" stroke="black" />
<path d="M 44.688,23.39699999999999 L 44.733999999999995,23.877999999999986" stroke="black" />
<path d="M 44.733999999999995,23.877999999999986 L 44.733999999999995,24.912999999999982" stroke="black" />
<path d="M 44.733999999999995,24.912999999999982 L 44.687,25.400999999999982" stroke="black" />
<path d="M 44.687,25.400999999999982 L 44.513999999999996,26.31899999999999" stroke="black" />
<path d="M 44.513999999999996,26.31899999999999 L 44.205,27.272999999999996" stroke="black" />
<path d="M 44.205,27.272999999999996 L 43.83399999999999,28.081999999999994" stroke="black" />
<path d="M 43.83399999999999,28.081999999999994 L 43.28499999999998,28.968999999999994" stroke="black" />
<path d="M 43.28499999999998,28.968999999999994 L 42.67700000000001,29.718999999999994" stroke="black" />
<path d="M 42.67700000000001,29.718999999999994 L 42.01299999999999,30.361999999999995" stroke="black" />
<path d="M 42.01299999999999,30.361999999999995 L 41.26799999999999,30.924000000000007" stroke="black" />
<path d="M 41.26799999999999,30.924000000000007 L 40.848,31.191000000000003" stroke="black" />
<path d="M 40.848,31.191000000000003 L 39.94099999999999,31.643" stroke="black" />
<path d="M 39.94099999999999,31.643 L 39.081,31.948000000000008" stroke="black" />
<path d="M 39.081,31.948000000000008 L 38.605000000000004,32.071" stroke="black" />
<path d="M 38.605000000000004,32.071 L 37.587,32.228999999999985" stroke="black" />
<path d="M 37.587,32.228999999999985 L 37.11,32.257000000000005" stroke="black" />
<path d="M 37.11,32.257000000000005 L 36.135000000000005,32.22399999999999" stroke="black" />
<path d="M 36.135000000000005,32.22399999999999 L 35.193,32.07599999999999" stroke="black" />
<path d="M 35.193,32.07599999999999 L 34.748000000000005,31.964" stroke="black" />
<path d="M 34.748000000000005,31.964 L 33.79099999999998,31.621999999999986" stroke="black" />
<path d="M 33.79099999999998,31.621999999999986 L 32.938,31.195999999999998" stroke="black" />
<path d="M 32.938,31.195999999999998 L 32.510000000000005,30.925999999999988" stroke="black" />
<path d="M 32.510000000000005,30.925999999999988 L 31.739999999999995,30.33699999999999" stroke="black" />
<path d="M 31.739999999999995,30.33699999999999 L 31.034999999999982,29.64500000000001" stroke="black" />
<path d="M 31.034999999999982,29.64500000000001 L 30.439000000000007,28.889999999999986" stroke="black" />
<path d="M 30.439000000000007,28.889999999999986 L 29.945000000000007,28.083" stroke="black" />
<path d="M 29.945000000000007,28.083 L 29.57199999999999,27.270999999999987" stroke="black" />
<path d="M 29.57199999999999,27.270999999999987 L 29.278999999999982,26.37299999999999" stroke="black" />
<path d="M 29.278999999999982,26.37299999999999 L 29.08999999999999,25.395999999999987" stroke="black" />
<path d="M 29.08999999999999,25.395999999999987 L 29.064000000000007,25.132000000000005" stroke="black" />
<path d="M 4.7890000000000015,6.470999999999989 L 4.792999999999992,5.8799999999999955" stroke="black" />
<path d="M 4.792999999999992,5.8799999999999955 L 4.912999999999997,5.405999999999992" stroke="black" />
<path d="M 4.912999999999997,5.405999999999992 L 5.111999999999995,5.006" stroke="black" />
<path d="M 5.111999999999995,5.006 L 5.381,4.664999999999992" stroke="black" />
<path d="M 5.381,4.664999999999992 L 5.873999999999995,4.292000000000002" stroke="black" />
<path d="M 5.873999999999995,4.292000000000002 L 6.256999999999991,4.131" stroke="black" />
<path d="M 6.256999999999991,4.131 L 6.662999999999997,4.043999999999997" stroke="black" />
<path d="M 6.662999999999997,4.043999999999997 L 66.95299999999999,4.0390000000000015" stroke="black" />
<path d="M 66.95299999999999,4.0390000000000015 L 67.51699999999998,4.1299999999999955" stroke="black" />
<path d="M 67.51699999999998,4.1299999999999955 L 67.88699999999999,4.283999999999992" stroke="black" />
<path d="M 67.88699999999999,4.283999999999992 L 68.31400000000001,4.5859999999999985" stroke="black" />
<path d="M 68.31400000000001,4.5859999999999985 L 68.734,5.128" stroke="black" />
<path d="M 68.734,5.128 L 68.98799999999999,5.816999999999993" stroke="black" />
<path d="M 68.98799999999999,5.816999999999993 L 68.98899999999999,6.387999999999991" stroke="black" />
<path d="M 68.98899999999999,6.387999999999991 L 68.85799999999999,6.908999999999992" stroke="black" />
<path d="M 68.85799999999999,6.908999999999992 L 68.63699999999999,7.325000000000003" stroke="black" />
<path d="M 68.63699999999999,7.325000000000003 L 68.30399999999999,7.714999999999989" stroke="black" />
<path d="M 68.30399999999999,7.714999999999989 L 67.854,8.027999999999992" stroke="black" />
<path d="M 67.854,8.027999999999992 L 67.373,8.203000000000003" stroke="black" />
<path d="M 67.373,8.203000000000003 L 67.01699999999998,8.253" stroke="black" />
<path d="M 67.01699999999998,8.253 L 6.829999999999998,8.257999999999996" stroke="black" />
<path d="M 6.829999999999998,8.257999999999996 L 6.414999999999992,8.203000000000003" stroke="black" />
<path d="M 6.414999999999992,8.203000000000003 L 5.9140000000000015,8.018999999999991" stroke="black" />
<path d="M 5.9140000000000015,8.018999999999991 L 5.455999999999989,7.700999999999993" stroke="black" />
<path d="M 5.455999999999989,7.700999999999993 L 5.35499999999999,7.569000000000003" stroke="black" />
<path d="M 0.7609999999999957,6.197000000000003 L 0.8579999999999899,6.997" stroke="black" />
<path d="M 0.8579999999999899,6.997 L 1.1400000000000006,7.896000000000001" stroke="black" />
<path d="M 1.1400000000000006,7.896000000000001 L 1.509999999999991,8.585999999999999" stroke="black" />
<path d="M 1.509999999999991,8.585999999999999 L 1.8739999999999952,9.099999999999994" stroke="black" />
<path d="M 1.8739999999999952,9.099999999999994 L 2.3810000000000002,9.655000000000001" stroke="black" />
<path d="M 2.3810000000000002,9.655000000000001 L 33.492000000000004,36.748999999999995" stroke="black" />
<path d="M 33.492000000000004,36.748999999999995 L 34.045,37.16999999999999" stroke="black" />
<path d="M 34.045,37.16999999999999 L 34.576999999999984,37.486999999999995" stroke="black" />
<path d="M 34.576999999999984,37.486999999999995 L 35.19099999999999,37.74199999999999" stroke="black" />
<path d="M 35.19099999999999,37.74199999999999 L 35.795,37.91499999999999" stroke="black" />
<path d="M 35.795,37.91499999999999 L 36.55899999999998,38.036" stroke="black" />
<path d="M 36.55899999999998,38.036 L 37.33999999999999,38.014999999999986" stroke="black" />
<path d="M 37.33999999999999,38.014999999999986 L 38.130999999999986,37.893" stroke="black" />
<path d="M 38.130999999999986,37.893 L 38.87400000000001,37.63499999999999" stroke="black" />
<path d="M 38.87400000000001,37.63499999999999 L 39.444,37.35300000000001" stroke="black" />
<path d="M 39.444,37.35300000000001 L 40.068,36.94399999999999" stroke="black" />
<path d="M 40.068,36.94399999999999 L 71.241,9.789999999999992" stroke="black" />
<path d="M 71.241,9.789999999999992 L 71.79199999999999,9.25399999999999" stroke="black" />
<path d="M 71.79199999999999,9.25399999999999 L 72.24999999999999,8.614999999999995" stroke="black" />
<path d="M 72.24999999999999,8.614999999999995 L 72.628,7.923000000000002" stroke="black" />
<path d="M 72.628,7.923000000000002 L 72.914,7.021000000000001" stroke="black" />
<path d="M 72.914,7.021000000000001 L 73.016,6.22999999999999" stroke="black" />
<path d="M 73.016,6.22999999999999 L 73.016,5.719999999999999" stroke="black" />
<path d="M 73.016,5.719999999999999 L 73.016,5.597999999999999" stroke="black" />
<path d="M 73.016,5.597999999999999 L 72.92,4.798999999999992" stroke="black" />
<path d="M 72.92,4.798999999999992 L 72.63799999999999,3.9009999999999962" stroke="black" />
<path d="M 72.63799999999999,3.9009999999999962 L 72.264,3.206000000000003" stroke="black" />
<path d="M 72.264,3.206000000000003 L 71.89899999999999,2.688999999999993" stroke="black" />
<path d="M 71.89899999999999,2.688999999999993 L 71.473,2.218999999999994" stroke="black" />
<path d="M 71.473,2.218999999999994 L 70.872,1.698999999999998" stroke="black" />
<path d="M 70.872,1.698999999999998 L 70.205,1.3109999999999928" stroke="black" />
<path d="M 70.205,1.3109999999999928 L 69.586,1.0549999999999926" stroke="black" />
<path d="M 69.586,1.0549999999999926 L 68.98299999999999,0.8799999999999955" stroke="black" />
<path d="M 68.98299999999999,0.8799999999999955 L 68.24,0.7639999999999958" stroke="black" />
<path d="M 68.24,0.7639999999999958 L 5.575999999999993,0.7609999999999957" stroke="black" />
<path d="M 5.575999999999993,0.7609999999999957 L 4.646999999999991,0.9029999999999916" stroke="black" />
<path d="M 4.646999999999991,0.9029999999999916 L 3.9039999999999964,1.1610000000000014" stroke="black" />
<path d="M 3.9039999999999964,1.1610000000000014 L 3.333999999999989,1.4429999999999978" stroke="black" />
<path d="M 3.333999999999989,1.4429999999999978 L 2.8049999999999926,1.789999999999992" stroke="black" />
<path d="M 2.8049999999999926,1.789999999999992 L 2.325000000000003,2.198999999999998" stroke="black" />
<path d="M 2.325000000000003,2.198999999999998 L 1.8960000000000008,2.664999999999992" stroke="black" />
<path d="M 1.8960000000000008,2.664999999999992 L 1.5279999999999916,3.1799999999999926" stroke="black" />
<path d="M 1.5279999999999916,3.1799999999999926 L 1.1499999999999915,3.872" stroke="black" />
<path d="M 1.1499999999999915,3.872 L 0.8639999999999901,4.7749999999999915" stroke="black" />
<path d="M 0.8639999999999901,4.7749999999999915 L 0.840999999999994,4.951999999999998" stroke="black" />
<path d="M 3.61399999999999,1.5259999999999962 L 1.5079999999999956,3.6329999999999956" stroke="black" />
<path d="M 1.5079999999999956,3.6329999999999956 L 1.4380000000000024,3.703000000000003" stroke="black" />
<path d="M 1.1389999999999958,4.567999999999998 L 4.563999999999993,1.141999999999996" stroke="black" />
<path d="M 5.2620000000000005,1.009999999999991 L 1.0019999999999953,5.269999999999996" stroke="black" />
<path d="M 0.9619999999999891,5.875999999999991 L 5.876999999999995,0.9609999999999985" stroke="black" />
<path d="M 6.442999999999998,0.9609999999999985 L 0.9889999999999901,6.414999999999992" stroke="black" />
<path d="M 1.0499999999999972,6.918999999999997 L 7.007999999999996,0.9609999999999985" stroke="black" />
<path d="M 7.573999999999998,0.9609999999999985 L 1.1799999999999926,7.35499999999999" stroke="black" />
<path d="M 1.3149999999999977,7.784999999999997 L 8.14,0.9609999999999985" stroke="black" />
<path d="M 8.704999999999998,0.9609999999999985 L 1.5079999999999956,8.158000000000001" stroke="black" />
<path d="M 1.7099999999999937,8.521999999999991 L 4.665999999999997,5.564999999999998" stroke="black" />
<path d="M 4.588999999999999,6.207999999999998 L 1.9449999999999932,8.852999999999994" stroke="black" />
<path d="M 2.201999999999998,9.161000000000001 L 4.658999999999992,6.7039999999999935" stroke="black" />
<path d="M 4.8089999999999975,7.11999999999999 L 2.471999999999994,9.456999999999994" stroke="black" />
<path d="M 2.7680000000000007,9.72699999999999 L 5.021999999999991,7.471999999999994" stroke="black" />
<path d="M 5.268000000000001,7.792000000000002 L 3.070999999999998,9.989999999999995" stroke="black" />
<path d="M 3.372,10.253 L 5.590999999999994,8.034999999999997" stroke="black" />
<path d="M 5.950000000000003,8.24199999999999 L 3.674999999999997,10.515999999999991" stroke="black" />
<path d="M 3.9779999999999944,10.778999999999996 L 6.367999999999995,8.388999999999996" stroke="black" />
<path d="M 6.867999999999995,8.454999999999998 L 4.280000000000001,11.042999999999992" stroke="black" />
<path d="M 4.581999999999994,11.305999999999997 L 7.4339999999999975,8.454999999999998" stroke="black" />
<path d="M 8,8.454999999999998 L 4.884,11.569999999999993" stroke="black" />
<path d="M 5.186999999999998,11.832999999999998 L 8.564999999999998,8.454999999999998" stroke="black" />
<path d="M 9.131,8.454999999999998 L 5.489999999999995,12.09599999999999" stroke="black" />
<path d="M 5.790999999999997,12.36 L 9.697000000000003,8.454999999999998" stroke="black" />
<path d="M 10.262,8.454999999999998 L 6.093999999999994,12.62299999999999" stroke="black" />
<path d="M 6.396000000000001,12.887 L 10.827999999999989,8.454999999999998" stroke="black" />
<path d="M 11.393999999999991,8.454999999999998 L 6.698999999999998,13.149999999999991" stroke="black" />
<path d="M 7.000999999999991,13.412999999999997 L 11.959999999999994,8.454999999999998" stroke="black" />
<path d="M 12.524999999999991,8.454999999999998 L 7.302999999999997,13.676999999999992" stroke="black" />
<path d="M 7.6059999999999945,13.939999999999998 L 13.090999999999994,8.454999999999998" stroke="black" />
<path d="M 13.656999999999996,8.454999999999998 L 7.908000000000001,14.203000000000003" stroke="black" />
<path d="M 8.209999999999994,14.465999999999994 L 14.221999999999994,8.454999999999998" stroke="black" />
<path d="M 14.787999999999997,8.454999999999998 L 8.512999999999991,14.729" stroke="black" />
<path d="M 8.814999999999998,14.992999999999995 L 15.354,8.454999999999998" stroke="black" />
<path d="M 15.918999999999997,8.454999999999998 L 9.117999999999995,15.256" stroke="black" />
<path d="M 9.420000000000002,15.519999999999996 L 16.485,8.454999999999998" stroke="black" />
<path d="M 17.051000000000002,8.453999999999994 L 9.721999999999994,15.783000000000001" stroke="black" />
<path d="M 10.024999999999991,16.045999999999992 L 17.61699999999999,8.453999999999994" stroke="black" />
<path d="M 18.182999999999993,8.453999999999994 L 10.326999999999998,16.310000000000002" stroke="black" />
<path d="M 10.62899999999999,16.572999999999993 L 18.74799999999999,8.453999999999994" stroke="black" />
<path d="M 19.313999999999993,8.453999999999994 L 10.930999999999997,16.83699999999999" stroke="black" />
<path d="M 11.233999999999995,17.099999999999994 L 19.879999999999995,8.453999999999994" stroke="black" />
<path d="M 20.445999999999984,8.453999999999994 L 11.536999999999992,17.363" stroke="black" />
<path d="M 11.838999999999999,17.62599999999999 L 21.01100000000001,8.453999999999994" stroke="black" />
<path d="M 21.576999999999984,8.453999999999994 L 12.140999999999991,17.888999999999996" stroke="black" />
<path d="M 12.442999999999998,18.15299999999999 L 22.142999999999986,8.453999999999994" stroke="black" />
<path d="M 22.707999999999984,8.453999999999994 L 12.745999999999995,18.415999999999997" stroke="black" />
<path d="M 13.048000000000002,18.679000000000002 L 23.273999999999987,8.453999999999994" stroke="black" />
<path d="M 23.83999999999999,8.453999999999994 L 13.349999999999994,18.942999999999998" stroke="black" />
<path d="M 13.652999999999992,19.206000000000003 L 24.404999999999987,8.453999999999994" stroke="black" />
<path d="M 24.97099999999999,8.453999999999994 L 13.954999999999998,19.47" stroke="black" />
<path d="M 14.257999999999996,19.73299999999999 L 25.536999999999992,8.453999999999994" stroke="black" />
<path d="M 26.10199999999999,8.453999999999994 L 14.560000000000002,19.995999999999995" stroke="black" />
<path d="M 14.861999999999995,20.25999999999999 L 26.667999999999992,8.453999999999994" stroke="black" />
<path d="M 27.233999999999995,8.453000000000003 L 15.164999999999992,20.522999999999996" stroke="black" />
<path d="M 15.46799999999999,20.786 L 27.799999999999997,8.453000000000003" stroke="black" />
<path d="M 28.366,8.453000000000003 L 15.768999999999991,21.049999999999997" stroke="black" />
<path d="M 16.072000000000003,21.313000000000002 L 28.932000000000002,8.453000000000003" stroke="black" />
<path d="M 29.497,8.453000000000003 L 16.373999999999995,21.575999999999993" stroke="black" />
<path d="M 16.676999999999992,21.839 L 30.063000000000002,8.453000000000003" stroke="black" />
<path d="M 30.629000000000005,8.453000000000003 L 16.979,22.10199999999999" stroke="black" />
<path d="M 17.28099999999999,22.366 L 31.194000000000003,8.453000000000003" stroke="black" />
<path d="M 31.760000000000005,8.453000000000003 L 17.58399999999999,22.62899999999999" stroke="black" />
<path d="M 17.885999999999996,22.893 L 32.32600000000001,8.453000000000003" stroke="black" />
<path d="M 32.891000000000005,8.453000000000003 L 18.188000000000002,23.156000000000006" stroke="black" />
<path d="M 18.491,23.418999999999983 L 33.45700000000001,8.453000000000003" stroke="black" />
<path d="M 34.02299999999998,8.453000000000003 L 18.792999999999992,23.682999999999993" stroke="black" />
<path d="M 19.09599999999999,23.945999999999998 L 34.58800000000001,8.453000000000003" stroke="black" />
<path d="M 35.15399999999998,8.453000000000003 L 19.397999999999996,24.210000000000008" stroke="black" />
<path d="M 19.700000000000003,24.472999999999985 L 35.719999999999985,8.453000000000003" stroke="black" />
<path d="M 36.28499999999998,8.453000000000003 L 20.003,24.73599999999999" stroke="black" />
<path d="M 20.304999999999993,24.998999999999995 L 36.850999999999985,8.453000000000003" stroke="black" />
<path d="M 37.41799999999999,8.451999999999998 L 20.606999999999985,25.262" stroke="black" />
<path d="M 20.909000000000006,25.525999999999982 L 37.98299999999999,8.451999999999998" stroke="black" />
<path d="M 38.54899999999999,8.451999999999998 L 21.212000000000003,25.788999999999987" stroke="black" />
<path d="M 21.515,26.051999999999992 L 39.114999999999995,8.451999999999998" stroke="black" />
<path d="M 39.67999999999999,8.451999999999998 L 21.816999999999993,26.316000000000003" stroke="black" />
<path d="M 22.118999999999986,26.579000000000008 L 40.245999999999995,8.451999999999998" stroke="black" />
<path d="M 40.812,8.451999999999998 L 22.421000000000006,26.84299999999999" stroke="black" />
<path d="M 22.724000000000004,27.105999999999995 L 41.376999999999995,8.451999999999998" stroke="black" />
<path d="M 41.943,8.451999999999998 L 33.09599999999999,17.299999999999997" stroke="black" />
<path d="M 33.09599999999999,17.299999999999997 L 33.025999999999996,17.36999999999999" stroke="black" />
<path d="M 34.120999999999995,16.83999999999999 L 42.509,8.451999999999998" stroke="black" />
<path d="M 43.074,8.451999999999998 L 34.951999999999984,16.575000000000003" stroke="black" />
<path d="M 35.646,16.447000000000003 L 43.64,8.451999999999998" stroke="black" />
<path d="M 44.206,8.451999999999998 L 36.29699999999998,16.36099999999999" stroke="black" />
<path d="M 36.878,16.34599999999999 L 44.771,8.451999999999998" stroke="black" />
<path d="M 45.337,8.451999999999998 L 37.42700000000001,16.363" stroke="black" />
<path d="M 37.93999999999998,16.414999999999992 L 45.903000000000006,8.451999999999998" stroke="black" />
<path d="M 46.468,8.451999999999998 L 38.42899999999999,16.49199999999999" stroke="black" />
<path d="M 38.89199999999998,16.595 L 47.03499999999998,8.451999999999998" stroke="black" />
<path d="M 47.600999999999985,8.451999999999998 L 39.325,16.72699999999999" stroke="black" />
<path d="M 39.741,16.876999999999995 L 48.16599999999998,8.451999999999998" stroke="black" />
<path d="M 48.731999999999985,8.451999999999998 L 40.150999999999996,17.031999999999996" stroke="black" />
<path d="M 40.528000000000006,17.22099999999999 L 49.29799999999999,8.451999999999998" stroke="black" />
<path d="M 49.862999999999985,8.451999999999998 L 40.90399999999998,17.411" stroke="black" />
<path d="M 41.254000000000005,17.626999999999995 L 50.42899999999999,8.451999999999998" stroke="black" />
<path d="M 50.99499999999999,8.451999999999998 L 41.58399999999999,17.861999999999995" stroke="black" />
<path d="M 41.90599999999999,18.105999999999995 L 51.55999999999999,8.451999999999998" stroke="black" />
<path d="M 52.12599999999999,8.451999999999998 L 42.21900000000001,18.35799999999999" stroke="black" />
<path d="M 42.50500000000001,18.63799999999999 L 52.69199999999999,8.451999999999998" stroke="black" />
<path d="M 53.25699999999999,8.451999999999998 L 42.79199999999999,18.917999999999992" stroke="black" />
<path d="M 43.05200000000001,19.223 L 53.82299999999999,8.451999999999998" stroke="black" />
<path d="M 54.388999999999996,8.451999999999998 L 43.30299999999998,19.537999999999997" stroke="black" />
<path d="M 43.544,19.861999999999995 L 54.95399999999999,8.451999999999998" stroke="black" />
<path d="M 55.519999999999996,8.451999999999998 L 43.760000000000005,20.21199999999999" stroke="black" />
<path d="M 43.97699999999999,20.560000000000002 L 56.086,8.451999999999998" stroke="black" />
<path d="M 56.652,8.451999999999998 L 44.158,20.944999999999993" stroke="black" />
<path d="M 44.33800000000001,21.331000000000003 L 57.218,8.450999999999993" stroke="black" />
<path d="M 57.784000000000006,8.450999999999993 L 44.48700000000001,21.747" stroke="black" />
<path d="M 44.623000000000005,22.176999999999992 L 58.349000000000004,8.450999999999993" stroke="black" />
</svg>
