<?xml version="1.0" encoding="UTF-8" standalone="no"?>
<!-- Created with Inkscape (http://www.inkscape.org/) -->

<svg
   width="37.914398mm"
   height="18.874714mm"
   viewBox="0 0 37.914398 18.874714"
   version="1.1"
   id="svg5"
   inkscape:version="1.2.2 (b0a8486541, 2022-12-01)"
   sodipodi:docname="logo.svg"
   xmlns:inkscape="http://www.inkscape.org/namespaces/inkscape"
   xmlns:sodipodi="http://sodipodi.sourceforge.net/DTD/sodipodi-0.dtd"
   xmlns="http://www.w3.org/2000/svg"
   xmlns:svg="http://www.w3.org/2000/svg">
  <sodipodi:namedview
     id="namedview7"
     pagecolor="#363636"
     bordercolor="#eeeeee"
     borderopacity="1"
     inkscape:showpageshadow="0"
     inkscape:pageopacity="1"
     inkscape:pagecheckerboard="0"
     inkscape:deskcolor="#505050"
     inkscape:document-units="mm"
     showgrid="false"
     inkscape:zoom="2.8284271"
     inkscape:cx="56.922096"
     inkscape:cy="85.913475"
     inkscape:window-width="1920"
     inkscape:window-height="1080"
     inkscape:window-x="0"
     inkscape:window-y="0"
     inkscape:window-maximized="1"
     inkscape:current-layer="layer1"
     showguides="true">
    <sodipodi:guide
       position="-0.030141453,7.1248224"
       orientation="1,0"
       id="guide402"
       inkscape:locked="false" />
    <sodipodi:guide
       position="38.042403,5.1603909"
       orientation="1,0"
       id="guide404"
       inkscape:locked="false" />
  </sodipodi:namedview>
  <defs
     id="defs2">
    <rect
       x="66.601227"
       y="169.22816"
       width="678.29193"
       height="143.55727"
       id="rect236" />
  </defs>
  <g
     inkscape:label="Ebene 1"
     inkscape:groupmode="layer"
     id="layer1"
     transform="translate(-26.693775,-52.557849)">
    <g
       id="g503"
       transform="translate(6.2040676,3.1236573)"
       style="fill:#ffffff">
      <path
         id="path348"
         style="font-size:40px;line-height:1.25;font-family:Comfortaa;-inkscape-font-specification:Comfortaa;white-space:pre;fill:#ffffff;stroke-width:0.264583"
         d="m 22.712309,49.434192 c -0.479778,0 -0.885369,0.106143 -1.21698,0.31781 -0.331611,0.204611 -0.582042,0.493704 -0.751376,0.867647 -0.14349,0.316874 -0.226147,0.677037 -0.248046,1.080038 v 2.639115 h -0.0062 v 2.948141 c 0,0.126999 0.03866,0.229346 0.116272,0.306958 0.07761,0.07055 0.169603,0.105936 0.275436,0.105936 0.134055,0 0.236402,-0.03538 0.306958,-0.105936 0.07761,-0.07761 0.116272,-0.179959 0.116272,-0.306958 v -4.455542 h 1.270206 c 0.11289,0 0.201084,-0.03158 0.264584,-0.09508 0.07055,-0.07055 0.105936,-0.15547 0.105936,-0.254248 0,-0.105833 -0.03538,-0.190231 -0.105936,-0.253731 -0.0635,-0.07056 -0.151694,-0.105937 -0.264584,-0.105937 h -1.270206 v -0.243396 c 0,-0.331611 0.04953,-0.6245 0.148311,-0.878499 0.105833,-0.261056 0.260994,-0.461953 0.465605,-0.603064 0.211666,-0.148167 0.47625,-0.222209 0.79375,-0.222209 0.119944,0 0.218495,-0.03538 0.296106,-0.105937 0.07761,-0.07055 0.116788,-0.15875 0.116788,-0.264583 0,-0.105833 -0.03918,-0.194027 -0.116788,-0.264583 -0.07761,-0.07056 -0.176162,-0.105937 -0.296106,-0.105937 z" />
      <path
         id="path350"
         style="font-size:40px;line-height:1.25;font-family:Comfortaa;-inkscape-font-specification:Comfortaa;white-space:pre;fill:#ffffff;stroke-width:0.264583"
         d="m 26.45885,51.857817 c -0.557388,0 -1.058251,0.130651 -1.502751,0.391707 -0.444498,0.254 -0.797278,0.602983 -1.058333,1.047481 -0.254,0.4445 -0.381372,0.949159 -0.381372,1.513603 0,0.557388 0.123576,1.058251 0.37052,1.502751 0.254,0.444498 0.596423,0.797278 1.026811,1.058333 0.422975,0.249626 0.90046,0.37604 1.43247,0.380338 v 0.001 h 3.055628 v -1.27124 h -0.001 v -1.671216 c -0.0071,-0.564444 -0.140988,-1.069103 -0.402042,-1.513603 -0.254,-0.444498 -0.602983,-0.793481 -1.047482,-1.047481 -0.437443,-0.261056 -0.935027,-0.391707 -1.492415,-0.391707 z m -0.0026,0.718819 a 2.1550517,2.2382958 0 0 1 1.46296,0.594795 c 0.0074,0.0069 0.01446,0.01416 0.0217,0.02119 0.09317,0.0903 0.177436,0.18948 0.252698,0.297656 0.0073,0.01044 0.01461,0.02092 0.0217,0.03152 a 2.1550517,2.2382958 0 0 1 0.02325,0.03566 2.1550517,2.2382958 0 0 1 0.373104,1.257288 2.1550517,2.2382958 0 0 1 -2.155424,2.238623 2.1550517,2.2382958 0 0 1 -1.81901,-1.041797 c -0.0061,-0.0097 -0.01215,-0.01958 -0.01809,-0.02945 a 2.1550517,2.2382958 0 0 1 -0.02325,-0.03927 2.1550517,2.2382958 0 0 1 -0.0217,-0.04031 c -0.01569,-0.02929 -0.03119,-0.05851 -0.04548,-0.08837 -7.97e-4,-0.0017 -0.0013,-0.0035 -0.0021,-0.0052 a 2.1550517,2.2382958 0 0 1 -0.02791,-0.06098 c -0.0097,-0.02207 -0.01898,-0.04429 -0.02791,-0.06666 a 2.1550517,2.2382958 0 0 1 -0.169499,-0.866614 2.1550517,2.2382958 0 0 1 0.06356,-0.533301 c 8.66e-4,-0.004 0.0017,-0.0079 0.0026,-0.01188 0.04711,-0.210997 0.123232,-0.408091 0.22841,-0.591179 0.08133,-0.141569 0.174847,-0.27012 0.280603,-0.386023 0.02556,-0.02801 0.05208,-0.05514 0.07906,-0.08165 a 2.1550517,2.2382958 0 0 1 1.500683,-0.63407 z" />
      <path
         id="path352"
         style="font-size:40px;line-height:1.25;font-family:Comfortaa;-inkscape-font-specification:Comfortaa;white-space:pre;fill:#ffffff;stroke-width:0.264583"
         d="m 31.401184,49.434192 c -0.127,0 -0.229347,0.03866 -0.306958,0.116272 -0.07055,0.07055 -0.105937,0.169623 -0.105937,0.296623 v 4.995044 c 2.22e-4,0.01728 0.0011,0.0345 0.0016,0.05168 v 2.856673 h 2.804996 c 0.0415,0.0015 0.08294,0.0021 0.125057,0.0021 0.564444,0 1.069105,-0.126855 1.513603,-0.380855 0.4445,-0.261055 0.793483,-0.613835 1.047481,-1.058333 0.261056,-0.4445 0.391708,-0.94916 0.391708,-1.513603 0,-0.557388 -0.126856,-1.058251 -0.380856,-1.502751 -0.246943,-0.444498 -0.585571,-0.793481 -1.015958,-1.047481 -0.430388,-0.261056 -0.9171,-0.391707 -1.460376,-0.391707 -0.472722,0 -0.90334,0.102346 -1.291394,0.306958 -0.381,0.197554 -0.688042,0.462139 -0.920874,0.79375 v -3.111438 c 0,-0.127 -0.03866,-0.226068 -0.116272,-0.296623 -0.07056,-0.07761 -0.165827,-0.116272 -0.285771,-0.116272 z m 2.523877,3.15588 a 2.2304819,2.247051 0 0 1 2.230872,2.247408 2.2304819,2.247051 0 0 1 -2.230872,2.246891 2.2304819,2.247051 0 0 1 -2.230355,-2.246891 2.2304819,2.247051 0 0 1 2.230355,-2.247408 z" />
      <path
         d="m 38.809546,54.133256 q 0.03175,-0.656167 0.338666,-1.17475 0.3175,-0.518583 0.814917,-0.814917 0.508,-0.296333 1.121833,-0.296333 0.486834,0 0.751417,0.137583 0.264583,0.137584 0.201083,0.402167 -0.04233,0.15875 -0.148166,0.211667 -0.09525,0.05292 -0.243417,0.04233 -0.137583,-0.01058 -0.3175,-0.02117 -0.592667,-0.05292 -1.058333,0.127 -0.455084,0.169334 -0.73025,0.529167 -0.264584,0.359833 -0.264584,0.85725 z m 0.0635,3.566583 q -0.1905,0 -0.296334,-0.105833 -0.105833,-0.105833 -0.105833,-0.296333 v -4.98475 q 0,-0.1905 0.105833,-0.296334 0.105834,-0.105833 0.296334,-0.105833 0.1905,0 0.296333,0.105833 0.105833,0.105834 0.105833,0.296334 v 4.98475 q 0,0.1905 -0.105833,0.296333 -0.105833,0.105833 -0.296333,0.105833 z"
         id="path354"
         style="font-size:40px;line-height:1.25;font-family:Comfortaa;-inkscape-font-specification:Comfortaa;white-space:pre;fill:#ffffff;stroke-width:0.264583" />
      <path
         id="path356"
         style="font-size:40px;line-height:1.25;font-family:Comfortaa;-inkscape-font-specification:Comfortaa;white-space:pre;fill:#ffffff;stroke-width:0.264583"
         d="m 43.900163,51.910527 c -0.127,0 -0.229347,0.03918 -0.306958,0.116788 -0.07056,0.07056 -0.105937,0.169106 -0.105937,0.296106 v 4.963522 c 0,0.126999 0.03538,0.229346 0.105937,0.306958 0.07761,0.07055 0.179958,0.105936 0.306958,0.105936 0.119944,0 0.215215,-0.03538 0.28577,-0.105936 0.07761,-0.07761 0.116272,-0.179959 0.116272,-0.306958 v -4.963522 c 0,-0.127 -0.03866,-0.22555 -0.116272,-0.296106 -0.07055,-0.07761 -0.165826,-0.116788 -0.28577,-0.116788 z" />
      <path
         d="m 48.95896,57.752756 q -0.836084,0 -1.49225,-0.381 -0.645584,-0.391583 -1.026584,-1.058333 -0.370416,-0.66675 -0.370416,-1.502834 0,-0.846666 0.359833,-1.513416 0.359833,-0.66675 0.98425,-1.04775 0.624417,-0.391584 1.439333,-0.391584 0.645584,0 1.185334,0.254 0.550333,0.254 0.963083,0.762 0.116417,0.127 0.08467,0.275167 -0.03175,0.137583 -0.179917,0.243417 -0.116417,0.08467 -0.264583,0.0635 -0.137584,-0.03175 -0.243417,-0.15875 -0.613833,-0.6985 -1.545167,-0.6985 -0.592666,0 -1.04775,0.28575 -0.4445,0.28575 -0.6985,0.783166 -0.243416,0.497417 -0.243416,1.143 0,0.635 0.264583,1.132417 0.264583,0.497417 0.740833,0.783167 0.47625,0.28575 1.090084,0.28575 0.41275,0 0.751416,-0.105834 0.34925,-0.116416 0.613834,-0.34925 0.127,-0.105833 0.264583,-0.116416 0.137583,-0.01058 0.254,0.08467 0.127,0.116417 0.137583,0.264584 0.02117,0.148166 -0.09525,0.254 -0.772583,0.709083 -1.926166,0.709083 z"
         id="path358"
         style="font-size:40px;line-height:1.25;font-family:Comfortaa;-inkscape-font-specification:Comfortaa;white-space:pre;fill:#ffffff;stroke-width:0.264583" />
      <path
         d="m 55.308954,57.752756 q -0.846666,0 -1.513416,-0.381 -0.66675,-0.381 -1.04775,-1.04775 -0.381,-0.66675 -0.381,-1.513417 0,-0.85725 0.381,-1.524 0.381,-0.66675 1.04775,-1.04775 0.66675,-0.381 1.513416,-0.381 0.846667,0 1.502834,0.381 0.66675,0.381 1.04775,1.04775 0.381,0.66675 0.391583,1.524 0,0.846667 -0.391583,1.513417 -0.381,0.66675 -1.04775,1.04775 -0.656167,0.381 -1.502834,0.381 z m 0,-0.740833 q 0.613834,0 1.100667,-0.28575 0.486833,-0.28575 0.762,-0.783167 0.275167,-0.497417 0.275167,-1.132417 0,-0.635 -0.275167,-1.132416 -0.275167,-0.508 -0.762,-0.79375 -0.486833,-0.28575 -1.100667,-0.28575 -0.613833,0 -1.100666,0.28575 -0.486834,0.28575 -0.772584,0.79375 -0.275166,0.497416 -0.275166,1.132416 0,0.635 0.275166,1.132417 0.28575,0.497417 0.772584,0.783167 0.486833,0.28575 1.100666,0.28575 z"
         id="path360"
         style="font-size:40px;line-height:1.25;font-family:Comfortaa;-inkscape-font-specification:Comfortaa;white-space:pre;fill:#ffffff;stroke-width:0.264583" />
    </g>
    <text
       xml:space="preserve"
       style="font-size:8.11389px;line-height:1.25;font-family:Comfortaa;-inkscape-font-specification:Comfortaa;stroke-width:0.264583"
       x="26.716309"
       y="69.679962"
       id="text350"><tspan
         sodipodi:role="line"
         id="tspan348"
         style="font-size:8.11389px;fill:#ffffff;stroke-width:0.264583"
         x="26.716309"
         y="69.679962">- ledger - </tspan></text>
  </g>
</svg>
